<svg xmlns="http://www.w3.org/2000/svg" width="15.899" height="14.587" viewBox="0 0 15.899 14.587">
  <path id="ic_favorite_border_24px" d="M13.526,3A4.76,4.76,0,0,0,9.949,4.661,4.76,4.76,0,0,0,6.372,3,4.33,4.33,0,0,0,2,7.372c0,3,2.7,5.453,6.8,9.173l1.153,1.041L11.1,16.538c4.094-3.712,6.8-6.161,6.8-9.166A4.33,4.33,0,0,0,13.526,3Zm-3.5,12.361-.079.079-.079-.079C6.086,11.935,3.59,9.669,3.59,7.372A2.717,2.717,0,0,1,6.372,4.59,3.108,3.108,0,0,1,9.21,6.466H10.7a3.088,3.088,0,0,1,2.83-1.876,2.717,2.717,0,0,1,2.782,2.782C16.309,9.669,13.813,11.935,10.029,15.361Z" transform="translate(-2 -3)"/>
</svg>
